<?xml version="1.0" encoding="utf-8"?>
<svg xmlns="http://www.w3.org/2000/svg" xmlns:xlink="http://www.w3.org/1999/xlink" width="600" height="400" viewBox="0 0 2400 1600">
<defs>
  <clipPath id="clip840">
    <rect x="0" y="0" width="2400" height="1600"/>
  </clipPath>
</defs>
<path clip-path="url(#clip840)" d="
M0 1600 L2400 1600 L2400 0 L0 0  Z
  " fill="#ffffff" fill-rule="evenodd" fill-opacity="1"/>
<defs>
  <clipPath id="clip841">
    <rect x="480" y="0" width="1681" height="1600"/>
  </clipPath>
</defs>
<path clip-path="url(#clip840)" d="
M110.881 1486.45 L2352.76 1486.45 L2352.76 47.2441 L110.881 47.2441  Z
  " fill="#ffffff" fill-rule="evenodd" fill-opacity="1"/>
<defs>
  <clipPath id="clip842">
    <rect x="110" y="47" width="2243" height="1440"/>
  </clipPath>
</defs>
<polyline clip-path="url(#clip842)" style="stroke:#000000; stroke-linecap:butt; stroke-linejoin:round; stroke-width:2; stroke-opacity:0.1; fill:none" points="
  174.33,1486.45 174.33,47.2441 
  "/>
<polyline clip-path="url(#clip842)" style="stroke:#000000; stroke-linecap:butt; stroke-linejoin:round; stroke-width:2; stroke-opacity:0.1; fill:none" points="
  879.322,1486.45 879.322,47.2441 
  "/>
<polyline clip-path="url(#clip842)" style="stroke:#000000; stroke-linecap:butt; stroke-linejoin:round; stroke-width:2; stroke-opacity:0.1; fill:none" points="
  1584.31,1486.45 1584.31,47.2441 
  "/>
<polyline clip-path="url(#clip842)" style="stroke:#000000; stroke-linecap:butt; stroke-linejoin:round; stroke-width:2; stroke-opacity:0.1; fill:none" points="
  2289.31,1486.45 2289.31,47.2441 
  "/>
<polyline clip-path="url(#clip840)" style="stroke:#000000; stroke-linecap:butt; stroke-linejoin:round; stroke-width:4; stroke-opacity:1; fill:none" points="
  110.881,1486.45 2352.76,1486.45 
  "/>
<polyline clip-path="url(#clip840)" style="stroke:#000000; stroke-linecap:butt; stroke-linejoin:round; stroke-width:4; stroke-opacity:1; fill:none" points="
  174.33,1486.45 174.33,1467.55 
  "/>
<polyline clip-path="url(#clip840)" style="stroke:#000000; stroke-linecap:butt; stroke-linejoin:round; stroke-width:4; stroke-opacity:1; fill:none" points="
  879.322,1486.45 879.322,1467.55 
  "/>
<polyline clip-path="url(#clip840)" style="stroke:#000000; stroke-linecap:butt; stroke-linejoin:round; stroke-width:4; stroke-opacity:1; fill:none" points="
  1584.31,1486.45 1584.31,1467.55 
  "/>
<polyline clip-path="url(#clip840)" style="stroke:#000000; stroke-linecap:butt; stroke-linejoin:round; stroke-width:4; stroke-opacity:1; fill:none" points="
  2289.31,1486.45 2289.31,1467.55 
  "/>
<path clip-path="url(#clip840)" d="M164.712 1544.91 L172.351 1544.91 L172.351 1518.55 L164.041 1520.21 L164.041 1515.95 L172.305 1514.29 L176.981 1514.29 L176.981 1544.91 L184.619 1544.91 L184.619 1548.85 L164.712 1548.85 L164.712 1544.91 Z" fill="#000000" fill-rule="evenodd" fill-opacity="1" /><path clip-path="url(#clip840)" d="M873.975 1544.91 L890.294 1544.91 L890.294 1548.85 L868.35 1548.85 L868.35 1544.91 Q871.012 1542.16 875.595 1537.53 Q880.202 1532.88 881.382 1531.53 Q883.628 1529.01 884.507 1527.27 Q885.41 1525.51 885.41 1523.82 Q885.41 1521.07 883.466 1519.33 Q881.545 1517.6 878.443 1517.6 Q876.244 1517.6 873.79 1518.36 Q871.359 1519.13 868.582 1520.68 L868.582 1515.95 Q871.406 1514.82 873.859 1514.24 Q876.313 1513.66 878.35 1513.66 Q883.72 1513.66 886.915 1516.35 Q890.109 1519.03 890.109 1523.52 Q890.109 1525.65 889.299 1527.57 Q888.512 1529.47 886.406 1532.07 Q885.827 1532.74 882.725 1535.95 Q879.623 1539.15 873.975 1544.91 Z" fill="#000000" fill-rule="evenodd" fill-opacity="1" /><path clip-path="url(#clip840)" d="M1588.56 1530.21 Q1591.92 1530.93 1593.79 1533.2 Q1595.69 1535.47 1595.69 1538.8 Q1595.69 1543.92 1592.17 1546.72 Q1588.65 1549.52 1582.17 1549.52 Q1580 1549.52 1577.68 1549.08 Q1575.39 1548.66 1572.94 1547.81 L1572.94 1543.29 Q1574.88 1544.43 1577.2 1545.01 Q1579.51 1545.58 1582.03 1545.58 Q1586.43 1545.58 1588.72 1543.85 Q1591.04 1542.11 1591.04 1538.8 Q1591.04 1535.75 1588.89 1534.03 Q1586.76 1532.3 1582.94 1532.3 L1578.91 1532.3 L1578.91 1528.45 L1583.12 1528.45 Q1586.57 1528.45 1588.4 1527.09 Q1590.23 1525.7 1590.23 1523.11 Q1590.23 1520.45 1588.33 1519.03 Q1586.46 1517.6 1582.94 1517.6 Q1581.02 1517.6 1578.82 1518.01 Q1576.62 1518.43 1573.98 1519.31 L1573.98 1515.14 Q1576.64 1514.4 1578.96 1514.03 Q1581.29 1513.66 1583.35 1513.66 Q1588.68 1513.66 1591.78 1516.09 Q1594.88 1518.5 1594.88 1522.62 Q1594.88 1525.49 1593.24 1527.48 Q1591.59 1529.45 1588.56 1530.21 Z" fill="#000000" fill-rule="evenodd" fill-opacity="1" /><path clip-path="url(#clip840)" d="M2292.32 1518.36 L2280.51 1536.81 L2292.32 1536.81 L2292.32 1518.36 M2291.09 1514.29 L2296.97 1514.29 L2296.97 1536.81 L2301.9 1536.81 L2301.9 1540.7 L2296.97 1540.7 L2296.97 1548.85 L2292.32 1548.85 L2292.32 1540.7 L2276.71 1540.7 L2276.71 1536.19 L2291.09 1514.29 Z" fill="#000000" fill-rule="evenodd" fill-opacity="1" /><polyline clip-path="url(#clip842)" style="stroke:#000000; stroke-linecap:butt; stroke-linejoin:round; stroke-width:2; stroke-opacity:0.1; fill:none" points="
  110.881,1445.72 2352.76,1445.72 
  "/>
<polyline clip-path="url(#clip842)" style="stroke:#000000; stroke-linecap:butt; stroke-linejoin:round; stroke-width:2; stroke-opacity:0.1; fill:none" points="
  110.881,993.136 2352.76,993.136 
  "/>
<polyline clip-path="url(#clip842)" style="stroke:#000000; stroke-linecap:butt; stroke-linejoin:round; stroke-width:2; stroke-opacity:0.1; fill:none" points="
  110.881,540.556 2352.76,540.556 
  "/>
<polyline clip-path="url(#clip842)" style="stroke:#000000; stroke-linecap:butt; stroke-linejoin:round; stroke-width:2; stroke-opacity:0.1; fill:none" points="
  110.881,87.9763 2352.76,87.9763 
  "/>
<polyline clip-path="url(#clip840)" style="stroke:#000000; stroke-linecap:butt; stroke-linejoin:round; stroke-width:4; stroke-opacity:1; fill:none" points="
  110.881,1486.45 110.881,47.2441 
  "/>
<polyline clip-path="url(#clip840)" style="stroke:#000000; stroke-linecap:butt; stroke-linejoin:round; stroke-width:4; stroke-opacity:1; fill:none" points="
  110.881,1445.72 129.779,1445.72 
  "/>
<polyline clip-path="url(#clip840)" style="stroke:#000000; stroke-linecap:butt; stroke-linejoin:round; stroke-width:4; stroke-opacity:1; fill:none" points="
  110.881,993.136 129.779,993.136 
  "/>
<polyline clip-path="url(#clip840)" style="stroke:#000000; stroke-linecap:butt; stroke-linejoin:round; stroke-width:4; stroke-opacity:1; fill:none" points="
  110.881,540.556 129.779,540.556 
  "/>
<polyline clip-path="url(#clip840)" style="stroke:#000000; stroke-linecap:butt; stroke-linejoin:round; stroke-width:4; stroke-opacity:1; fill:none" points="
  110.881,87.9763 129.779,87.9763 
  "/>
<path clip-path="url(#clip840)" d="M62.9365 1431.51 Q59.3254 1431.51 57.4967 1435.08 Q55.6912 1438.62 55.6912 1445.75 Q55.6912 1452.86 57.4967 1456.42 Q59.3254 1459.96 62.9365 1459.96 Q66.5707 1459.96 68.3763 1456.42 Q70.205 1452.86 70.205 1445.75 Q70.205 1438.62 68.3763 1435.08 Q66.5707 1431.51 62.9365 1431.51 M62.9365 1427.81 Q68.7467 1427.81 71.8022 1432.42 Q74.8809 1437 74.8809 1445.75 Q74.8809 1454.48 71.8022 1459.08 Q68.7467 1463.67 62.9365 1463.67 Q57.1264 1463.67 54.0477 1459.08 Q50.9921 1454.48 50.9921 1445.75 Q50.9921 1437 54.0477 1432.42 Q57.1264 1427.81 62.9365 1427.81 Z" fill="#000000" fill-rule="evenodd" fill-opacity="1" /><path clip-path="url(#clip840)" d="M54.9736 1006.48 L62.6124 1006.48 L62.6124 980.115 L54.3023 981.782 L54.3023 977.523 L62.5661 975.856 L67.242 975.856 L67.242 1006.48 L74.8809 1006.48 L74.8809 1010.42 L54.9736 1010.42 L54.9736 1006.48 Z" fill="#000000" fill-rule="evenodd" fill-opacity="1" /><path clip-path="url(#clip840)" d="M58.5615 553.901 L74.8809 553.901 L74.8809 557.836 L52.9366 557.836 L52.9366 553.901 Q55.5986 551.146 60.1819 546.517 Q64.7883 541.864 65.9689 540.521 Q68.2143 537.998 69.0939 536.262 Q69.9967 534.503 69.9967 532.813 Q69.9967 530.058 68.0522 528.322 Q66.1309 526.586 63.0291 526.586 Q60.83 526.586 58.3763 527.35 Q55.9458 528.114 53.168 529.665 L53.168 524.943 Q55.9921 523.808 58.4458 523.23 Q60.8995 522.651 62.9365 522.651 Q68.3068 522.651 71.5013 525.336 Q74.6957 528.021 74.6957 532.512 Q74.6957 534.642 73.8855 536.563 Q73.0985 538.461 70.992 541.054 Q70.4133 541.725 67.3115 544.943 Q64.2096 548.137 58.5615 553.901 Z" fill="#000000" fill-rule="evenodd" fill-opacity="1" /><path clip-path="url(#clip840)" d="M67.7513 86.6221 Q71.1078 87.3397 72.9827 89.6082 Q74.8809 91.8767 74.8809 95.21 Q74.8809 100.326 71.3624 103.127 Q67.8439 105.928 61.3624 105.928 Q59.1865 105.928 56.8717 105.488 Q54.5801 105.071 52.1264 104.215 L52.1264 99.7008 Q54.0708 100.835 56.3856 101.414 Q58.7004 101.992 61.2236 101.992 Q65.6217 101.992 67.9133 100.256 Q70.2281 98.5202 70.2281 95.21 Q70.2281 92.1545 68.0754 90.4415 Q65.9457 88.7054 62.1263 88.7054 L58.0986 88.7054 L58.0986 84.8629 L62.3115 84.8629 Q65.7606 84.8629 67.5893 83.4971 Q69.418 82.1083 69.418 79.5157 Q69.418 76.8537 67.5198 75.4416 Q65.6448 74.0064 62.1263 74.0064 Q60.205 74.0064 58.006 74.4231 Q55.8069 74.8398 53.168 75.7194 L53.168 71.5528 Q55.8301 70.812 58.1449 70.4416 Q60.4828 70.0713 62.543 70.0713 Q67.867 70.0713 70.9689 72.5018 Q74.0707 74.9092 74.0707 79.0296 Q74.0707 81.8999 72.4272 83.8907 Q70.7837 85.8582 67.7513 86.6221 Z" fill="#000000" fill-rule="evenodd" fill-opacity="1" /><polyline clip-path="url(#clip842)" style="stroke:#009af9; stroke-linecap:butt; stroke-linejoin:round; stroke-width:4; stroke-opacity:1; fill:none" points="
  174.33,1445.72 879.322,993.136 1584.31,540.556 2289.31,87.9763 
  "/>
<path clip-path="url(#clip840)" d="
M1976.5 198.898 L2278.03 198.898 L2278.03 95.2176 L1976.5 95.2176  Z
  " fill="#ffffff" fill-rule="evenodd" fill-opacity="1"/>
<polyline clip-path="url(#clip840)" style="stroke:#000000; stroke-linecap:butt; stroke-linejoin:round; stroke-width:4; stroke-opacity:1; fill:none" points="
  1976.5,198.898 2278.03,198.898 2278.03,95.2176 1976.5,95.2176 1976.5,198.898 
  "/>
<polyline clip-path="url(#clip840)" style="stroke:#009af9; stroke-linecap:butt; stroke-linejoin:round; stroke-width:4; stroke-opacity:1; fill:none" points="
  2001.41,147.058 2150.87,147.058 
  "/>
<path clip-path="url(#clip840)" d="M2189.62 166.745 Q2187.81 171.375 2186.1 172.787 Q2184.39 174.199 2181.52 174.199 L2178.11 174.199 L2178.11 170.634 L2180.61 170.634 Q2182.37 170.634 2183.35 169.8 Q2184.32 168.967 2185.5 165.865 L2186.26 163.921 L2175.78 138.412 L2180.29 138.412 L2188.39 158.689 L2196.49 138.412 L2201.01 138.412 L2189.62 166.745 Z" fill="#000000" fill-rule="evenodd" fill-opacity="1" /><path clip-path="url(#clip840)" d="M2208.3 160.402 L2215.94 160.402 L2215.94 134.037 L2207.63 135.703 L2207.63 131.444 L2215.89 129.778 L2220.57 129.778 L2220.57 160.402 L2228.21 160.402 L2228.21 164.338 L2208.3 164.338 L2208.3 160.402 Z" fill="#000000" fill-rule="evenodd" fill-opacity="1" /></svg>
