<?xml version="1.0" encoding="utf-8"?>
<svg xmlns="http://www.w3.org/2000/svg" xmlns:xlink="http://www.w3.org/1999/xlink" width="600" height="400" viewBox="0 0 2400 1600">
<defs>
  <clipPath id="clip880">
    <rect x="0" y="0" width="2400" height="1600"/>
  </clipPath>
</defs>
<path clip-path="url(#clip880)" d="
M0 1600 L2400 1600 L2400 0 L0 0  Z
  " fill="#ffffff" fill-rule="evenodd" fill-opacity="1"/>
<defs>
  <clipPath id="clip881">
    <rect x="480" y="0" width="1681" height="1600"/>
  </clipPath>
</defs>
<path clip-path="url(#clip880)" d="
M110.881 1423.18 L2352.76 1423.18 L2352.76 47.2441 L110.881 47.2441  Z
  " fill="#ffffff" fill-rule="evenodd" fill-opacity="1"/>
<defs>
  <clipPath id="clip882">
    <rect x="110" y="47" width="2243" height="1377"/>
  </clipPath>
</defs>
<polyline clip-path="url(#clip880)" style="stroke:#000000; stroke-linecap:butt; stroke-linejoin:round; stroke-width:4; stroke-opacity:1; fill:none" points="
  110.881,1423.18 2352.76,1423.18 
  "/>
<polyline clip-path="url(#clip880)" style="stroke:#000000; stroke-linecap:butt; stroke-linejoin:round; stroke-width:4; stroke-opacity:1; fill:none" points="
  174.33,1423.18 174.33,1404.28 
  "/>
<polyline clip-path="url(#clip880)" style="stroke:#000000; stroke-linecap:butt; stroke-linejoin:round; stroke-width:4; stroke-opacity:1; fill:none" points="
  879.322,1423.18 879.322,1404.28 
  "/>
<polyline clip-path="url(#clip880)" style="stroke:#000000; stroke-linecap:butt; stroke-linejoin:round; stroke-width:4; stroke-opacity:1; fill:none" points="
  1584.31,1423.18 1584.31,1404.28 
  "/>
<polyline clip-path="url(#clip880)" style="stroke:#000000; stroke-linecap:butt; stroke-linejoin:round; stroke-width:4; stroke-opacity:1; fill:none" points="
  2289.31,1423.18 2289.31,1404.28 
  "/>
<path clip-path="url(#clip880)" d="M164.712 1481.64 L172.351 1481.64 L172.351 1455.28 L164.041 1456.95 L164.041 1452.69 L172.305 1451.02 L176.981 1451.02 L176.981 1481.64 L184.619 1481.64 L184.619 1485.58 L164.712 1485.58 L164.712 1481.64 Z" fill="#000000" fill-rule="evenodd" fill-opacity="1" /><path clip-path="url(#clip880)" d="M873.975 1481.64 L890.294 1481.64 L890.294 1485.58 L868.35 1485.58 L868.35 1481.64 Q871.012 1478.89 875.595 1474.26 Q880.202 1469.61 881.382 1468.27 Q883.628 1465.74 884.507 1464.01 Q885.41 1462.25 885.41 1460.56 Q885.41 1457.8 883.466 1456.07 Q881.545 1454.33 878.443 1454.33 Q876.244 1454.33 873.79 1455.09 Q871.359 1455.86 868.582 1457.41 L868.582 1452.69 Q871.406 1451.55 873.859 1450.97 Q876.313 1450.39 878.35 1450.39 Q883.72 1450.39 886.915 1453.08 Q890.109 1455.77 890.109 1460.26 Q890.109 1462.39 889.299 1464.31 Q888.512 1466.2 886.406 1468.8 Q885.827 1469.47 882.725 1472.69 Q879.623 1475.88 873.975 1481.64 Z" fill="#000000" fill-rule="evenodd" fill-opacity="1" /><path clip-path="url(#clip880)" d="M1588.56 1466.95 Q1591.92 1467.66 1593.79 1469.93 Q1595.69 1472.2 1595.69 1475.53 Q1595.69 1480.65 1592.17 1483.45 Q1588.65 1486.25 1582.17 1486.25 Q1580 1486.25 1577.68 1485.81 Q1575.39 1485.39 1572.94 1484.54 L1572.94 1480.02 Q1574.88 1481.16 1577.2 1481.74 Q1579.51 1482.32 1582.03 1482.32 Q1586.43 1482.32 1588.72 1480.58 Q1591.04 1478.84 1591.04 1475.53 Q1591.04 1472.48 1588.89 1470.77 Q1586.76 1469.03 1582.94 1469.03 L1578.91 1469.03 L1578.91 1465.19 L1583.12 1465.19 Q1586.57 1465.19 1588.4 1463.82 Q1590.23 1462.43 1590.23 1459.84 Q1590.23 1457.18 1588.33 1455.77 Q1586.46 1454.33 1582.94 1454.33 Q1581.02 1454.33 1578.82 1454.75 Q1576.62 1455.16 1573.98 1456.04 L1573.98 1451.88 Q1576.64 1451.14 1578.96 1450.77 Q1581.29 1450.39 1583.35 1450.39 Q1588.68 1450.39 1591.78 1452.83 Q1594.88 1455.23 1594.88 1459.35 Q1594.88 1462.22 1593.24 1464.21 Q1591.59 1466.18 1588.56 1466.95 Z" fill="#000000" fill-rule="evenodd" fill-opacity="1" /><path clip-path="url(#clip880)" d="M2292.32 1455.09 L2280.51 1473.54 L2292.32 1473.54 L2292.32 1455.09 M2291.09 1451.02 L2296.97 1451.02 L2296.97 1473.54 L2301.9 1473.54 L2301.9 1477.43 L2296.97 1477.43 L2296.97 1485.58 L2292.32 1485.58 L2292.32 1477.43 L2276.71 1477.43 L2276.71 1472.92 L2291.09 1451.02 Z" fill="#000000" fill-rule="evenodd" fill-opacity="1" /><path clip-path="url(#clip880)" d="M1015.45 1522.08 L1015.45 1528.35 Q1011.79 1526.6 1008.54 1525.74 Q1005.29 1524.88 1002.27 1524.88 Q997.019 1524.88 994.155 1526.92 Q991.322 1528.96 991.322 1532.71 Q991.322 1535.87 993.2 1537.49 Q995.11 1539.08 1000.39 1540.07 L1004.28 1540.86 Q1011.47 1542.23 1014.88 1545.7 Q1018.31 1549.14 1018.31 1554.93 Q1018.31 1561.84 1013.67 1565.4 Q1009.05 1568.97 1000.11 1568.97 Q996.733 1568.97 992.913 1568.2 Q989.126 1567.44 985.052 1565.94 L985.052 1559.32 Q988.967 1561.52 992.722 1562.63 Q996.478 1563.75 1000.11 1563.75 Q1005.61 1563.75 1008.6 1561.58 Q1011.6 1559.42 1011.6 1555.41 Q1011.6 1551.91 1009.43 1549.93 Q1007.3 1547.96 1002.4 1546.97 L998.483 1546.21 Q991.29 1544.78 988.075 1541.72 Q984.861 1538.67 984.861 1533.22 Q984.861 1526.92 989.285 1523.29 Q993.741 1519.66 1001.54 1519.66 Q1004.88 1519.66 1008.35 1520.27 Q1011.82 1520.87 1015.45 1522.08 Z" fill="#000000" fill-rule="evenodd" fill-opacity="1" /><path clip-path="url(#clip880)" d="M1041.9 1536.5 Q1037.19 1536.5 1034.45 1540.19 Q1031.71 1543.85 1031.71 1550.25 Q1031.71 1556.65 1034.42 1560.34 Q1037.16 1564 1041.9 1564 Q1046.58 1564 1049.31 1560.31 Q1052.05 1556.62 1052.05 1550.25 Q1052.05 1543.92 1049.31 1540.23 Q1046.58 1536.5 1041.9 1536.5 M1041.9 1531.54 Q1049.54 1531.54 1053.9 1536.5 Q1058.26 1541.47 1058.26 1550.25 Q1058.26 1559 1053.9 1564 Q1049.54 1568.97 1041.9 1568.97 Q1034.23 1568.97 1029.87 1564 Q1025.54 1559 1025.54 1550.25 Q1025.54 1541.47 1029.87 1536.5 Q1034.23 1531.54 1041.9 1531.54 Z" fill="#000000" fill-rule="evenodd" fill-opacity="1" /><path clip-path="url(#clip880)" d="M1095.72 1539.24 Q1097.92 1535.29 1100.97 1533.41 Q1104.03 1531.54 1108.16 1531.54 Q1113.73 1531.54 1116.76 1535.45 Q1119.78 1539.33 1119.78 1546.53 L1119.78 1568.04 L1113.89 1568.04 L1113.89 1546.72 Q1113.89 1541.59 1112.08 1539.11 Q1110.27 1536.63 1106.54 1536.63 Q1101.99 1536.63 1099.35 1539.65 Q1096.71 1542.68 1096.71 1547.9 L1096.71 1568.04 L1090.82 1568.04 L1090.82 1546.72 Q1090.82 1541.56 1089 1539.11 Q1087.19 1536.63 1083.4 1536.63 Q1078.91 1536.63 1076.27 1539.68 Q1073.63 1542.71 1073.63 1547.9 L1073.63 1568.04 L1067.74 1568.04 L1067.74 1532.4 L1073.63 1532.4 L1073.63 1537.93 Q1075.64 1534.66 1078.44 1533.1 Q1081.24 1531.54 1085.09 1531.54 Q1088.97 1531.54 1091.68 1533.51 Q1094.41 1535.48 1095.72 1539.24 Z" fill="#000000" fill-rule="evenodd" fill-opacity="1" /><path clip-path="url(#clip880)" d="M1161.95 1548.76 L1161.95 1551.62 L1135.03 1551.62 Q1135.41 1557.67 1138.66 1560.85 Q1141.93 1564 1147.76 1564 Q1151.13 1564 1154.28 1563.17 Q1157.47 1562.35 1160.59 1560.69 L1160.59 1566.23 Q1157.44 1567.57 1154.12 1568.27 Q1150.81 1568.97 1147.41 1568.97 Q1138.88 1568.97 1133.88 1564 Q1128.92 1559.04 1128.92 1550.57 Q1128.92 1541.82 1133.63 1536.69 Q1138.37 1531.54 1146.39 1531.54 Q1153.58 1531.54 1157.75 1536.18 Q1161.95 1540.8 1161.95 1548.76 M1156.1 1547.04 Q1156.03 1542.23 1153.39 1539.37 Q1150.78 1536.5 1146.45 1536.5 Q1141.55 1536.5 1138.59 1539.27 Q1135.66 1542.04 1135.22 1547.07 L1156.1 1547.04 Z" fill="#000000" fill-rule="evenodd" fill-opacity="1" /><path clip-path="url(#clip880)" d="M1192.54 1520.52 L1201.2 1520.52 L1222.27 1560.28 L1222.27 1520.52 L1228.51 1520.52 L1228.51 1568.04 L1219.85 1568.04 L1198.78 1528.29 L1198.78 1568.04 L1192.54 1568.04 L1192.54 1520.52 Z" fill="#000000" fill-rule="evenodd" fill-opacity="1" /><path clip-path="url(#clip880)" d="M1240.44 1553.98 L1240.44 1532.4 L1246.3 1532.4 L1246.3 1553.75 Q1246.3 1558.81 1248.27 1561.36 Q1250.25 1563.87 1254.19 1563.87 Q1258.94 1563.87 1261.67 1560.85 Q1264.44 1557.83 1264.44 1552.61 L1264.44 1532.4 L1270.3 1532.4 L1270.3 1568.04 L1264.44 1568.04 L1264.44 1562.57 Q1262.31 1565.82 1259.48 1567.41 Q1256.68 1568.97 1252.95 1568.97 Q1246.81 1568.97 1243.63 1565.15 Q1240.44 1561.33 1240.44 1553.98 M1255.18 1531.54 L1255.18 1531.54 Z" fill="#000000" fill-rule="evenodd" fill-opacity="1" /><path clip-path="url(#clip880)" d="M1310.12 1539.24 Q1312.31 1535.29 1315.37 1533.41 Q1318.42 1531.54 1322.56 1531.54 Q1328.13 1531.54 1331.16 1535.45 Q1334.18 1539.33 1334.18 1546.53 L1334.18 1568.04 L1328.29 1568.04 L1328.29 1546.72 Q1328.29 1541.59 1326.48 1539.11 Q1324.66 1536.63 1320.94 1536.63 Q1316.39 1536.63 1313.75 1539.65 Q1311.1 1542.68 1311.1 1547.9 L1311.1 1568.04 L1305.21 1568.04 L1305.21 1546.72 Q1305.21 1541.56 1303.4 1539.11 Q1301.59 1536.63 1297.8 1536.63 Q1293.31 1536.63 1290.67 1539.68 Q1288.03 1542.71 1288.03 1547.9 L1288.03 1568.04 L1282.14 1568.04 L1282.14 1532.4 L1288.03 1532.4 L1288.03 1537.93 Q1290.03 1534.66 1292.83 1533.1 Q1295.63 1531.54 1299.49 1531.54 Q1303.37 1531.54 1306.07 1533.51 Q1308.81 1535.48 1310.12 1539.24 Z" fill="#000000" fill-rule="evenodd" fill-opacity="1" /><path clip-path="url(#clip880)" d="M1371.45 1550.25 Q1371.45 1543.79 1368.78 1540.13 Q1366.13 1536.44 1361.49 1536.44 Q1356.84 1536.44 1354.17 1540.13 Q1351.53 1543.79 1351.53 1550.25 Q1351.53 1556.71 1354.17 1560.4 Q1356.84 1564.07 1361.49 1564.07 Q1366.13 1564.07 1368.78 1560.4 Q1371.45 1556.71 1371.45 1550.25 M1351.53 1537.81 Q1353.37 1534.62 1356.17 1533.1 Q1359.01 1531.54 1362.92 1531.54 Q1369.41 1531.54 1373.46 1536.69 Q1377.53 1541.85 1377.53 1550.25 Q1377.53 1558.65 1373.46 1563.81 Q1369.41 1568.97 1362.92 1568.97 Q1359.01 1568.97 1356.17 1567.44 Q1353.37 1565.88 1351.53 1562.7 L1351.53 1568.04 L1345.64 1568.04 L1345.64 1518.52 L1351.53 1518.52 L1351.53 1537.81 Z" fill="#000000" fill-rule="evenodd" fill-opacity="1" /><path clip-path="url(#clip880)" d="M1417.73 1548.76 L1417.73 1551.62 L1390.8 1551.62 Q1391.18 1557.67 1394.43 1560.85 Q1397.71 1564 1403.53 1564 Q1406.91 1564 1410.06 1563.17 Q1413.24 1562.35 1416.36 1560.69 L1416.36 1566.23 Q1413.21 1567.57 1409.9 1568.27 Q1406.59 1568.97 1403.18 1568.97 Q1394.65 1568.97 1389.66 1564 Q1384.69 1559.04 1384.69 1550.57 Q1384.69 1541.82 1389.4 1536.69 Q1394.14 1531.54 1402.16 1531.54 Q1409.36 1531.54 1413.53 1536.18 Q1417.73 1540.8 1417.73 1548.76 M1411.87 1547.04 Q1411.81 1542.23 1409.17 1539.37 Q1406.56 1536.5 1402.23 1536.5 Q1397.33 1536.5 1394.37 1539.27 Q1391.44 1542.04 1390.99 1547.07 L1411.87 1547.04 Z" fill="#000000" fill-rule="evenodd" fill-opacity="1" /><path clip-path="url(#clip880)" d="M1448 1537.87 Q1447.01 1537.3 1445.83 1537.04 Q1444.69 1536.76 1443.29 1536.76 Q1438.32 1536.76 1435.65 1540 Q1433.01 1543.22 1433.01 1549.27 L1433.01 1568.04 L1427.12 1568.04 L1427.12 1532.4 L1433.01 1532.4 L1433.01 1537.93 Q1434.85 1534.69 1437.81 1533.13 Q1440.77 1531.54 1445.01 1531.54 Q1445.61 1531.54 1446.34 1531.63 Q1447.07 1531.7 1447.97 1531.85 L1448 1537.87 Z" fill="#000000" fill-rule="evenodd" fill-opacity="1" /><path clip-path="url(#clip880)" d="M1476.87 1533.45 L1476.87 1538.98 Q1474.38 1537.71 1471.71 1537.07 Q1469.04 1536.44 1466.17 1536.44 Q1461.81 1536.44 1459.62 1537.77 Q1457.45 1539.11 1457.45 1541.79 Q1457.45 1543.82 1459.01 1545 Q1460.57 1546.15 1465.28 1547.2 L1467.29 1547.64 Q1473.52 1548.98 1476.13 1551.43 Q1478.78 1553.85 1478.78 1558.21 Q1478.78 1563.17 1474.83 1566.07 Q1470.91 1568.97 1464.04 1568.97 Q1461.17 1568.97 1458.06 1568.39 Q1454.97 1567.85 1451.53 1566.74 L1451.53 1560.69 Q1454.78 1562.38 1457.93 1563.24 Q1461.08 1564.07 1464.17 1564.07 Q1468.3 1564.07 1470.53 1562.66 Q1472.76 1561.23 1472.76 1558.65 Q1472.76 1556.27 1471.14 1554.99 Q1469.55 1553.72 1464.1 1552.54 L1462.07 1552.07 Q1456.62 1550.92 1454.2 1548.56 Q1451.79 1546.18 1451.79 1542.04 Q1451.79 1537.01 1455.35 1534.27 Q1458.91 1531.54 1465.47 1531.54 Q1468.72 1531.54 1471.58 1532.01 Q1474.45 1532.49 1476.87 1533.45 Z" fill="#000000" fill-rule="evenodd" fill-opacity="1" /><polyline clip-path="url(#clip880)" style="stroke:#000000; stroke-linecap:butt; stroke-linejoin:round; stroke-width:4; stroke-opacity:1; fill:none" points="
  110.881,1423.18 110.881,47.2441 
  "/>
<polyline clip-path="url(#clip880)" style="stroke:#000000; stroke-linecap:butt; stroke-linejoin:round; stroke-width:4; stroke-opacity:1; fill:none" points="
  110.881,1384.24 129.779,1384.24 
  "/>
<polyline clip-path="url(#clip880)" style="stroke:#000000; stroke-linecap:butt; stroke-linejoin:round; stroke-width:4; stroke-opacity:1; fill:none" points="
  110.881,951.554 129.779,951.554 
  "/>
<polyline clip-path="url(#clip880)" style="stroke:#000000; stroke-linecap:butt; stroke-linejoin:round; stroke-width:4; stroke-opacity:1; fill:none" points="
  110.881,518.87 129.779,518.87 
  "/>
<polyline clip-path="url(#clip880)" style="stroke:#000000; stroke-linecap:butt; stroke-linejoin:round; stroke-width:4; stroke-opacity:1; fill:none" points="
  110.881,86.1857 129.779,86.1857 
  "/>
<path clip-path="url(#clip880)" d="M62.9365 1370.04 Q59.3254 1370.04 57.4967 1373.6 Q55.6912 1377.14 55.6912 1384.27 Q55.6912 1391.38 57.4967 1394.94 Q59.3254 1398.49 62.9365 1398.49 Q66.5707 1398.49 68.3763 1394.94 Q70.205 1391.38 70.205 1384.27 Q70.205 1377.14 68.3763 1373.6 Q66.5707 1370.04 62.9365 1370.04 M62.9365 1366.33 Q68.7467 1366.33 71.8022 1370.94 Q74.8809 1375.52 74.8809 1384.27 Q74.8809 1393 71.8022 1397.61 Q68.7467 1402.19 62.9365 1402.19 Q57.1264 1402.19 54.0477 1397.61 Q50.9921 1393 50.9921 1384.27 Q50.9921 1375.52 54.0477 1370.94 Q57.1264 1366.33 62.9365 1366.33 Z" fill="#000000" fill-rule="evenodd" fill-opacity="1" /><path clip-path="url(#clip880)" d="M54.9736 964.899 L62.6124 964.899 L62.6124 938.533 L54.3023 940.2 L54.3023 935.941 L62.5661 934.274 L67.242 934.274 L67.242 964.899 L74.8809 964.899 L74.8809 968.834 L54.9736 968.834 L54.9736 964.899 Z" fill="#000000" fill-rule="evenodd" fill-opacity="1" /><path clip-path="url(#clip880)" d="M58.5615 532.215 L74.8809 532.215 L74.8809 536.15 L52.9366 536.15 L52.9366 532.215 Q55.5986 529.46 60.1819 524.83 Q64.7883 520.178 65.9689 518.835 Q68.2143 516.312 69.0939 514.576 Q69.9967 512.817 69.9967 511.127 Q69.9967 508.372 68.0522 506.636 Q66.1309 504.9 63.0291 504.9 Q60.83 504.9 58.3763 505.664 Q55.9458 506.428 53.168 507.979 L53.168 503.257 Q55.9921 502.122 58.4458 501.544 Q60.8995 500.965 62.9365 500.965 Q68.3068 500.965 71.5013 503.65 Q74.6957 506.335 74.6957 510.826 Q74.6957 512.956 73.8855 514.877 Q73.0985 516.775 70.992 519.368 Q70.4133 520.039 67.3115 523.256 Q64.2096 526.451 58.5615 532.215 Z" fill="#000000" fill-rule="evenodd" fill-opacity="1" /><path clip-path="url(#clip880)" d="M67.7513 84.8315 Q71.1078 85.5491 72.9827 87.8176 Q74.8809 90.0861 74.8809 93.4194 Q74.8809 98.5351 71.3624 101.336 Q67.8439 104.137 61.3624 104.137 Q59.1865 104.137 56.8717 103.697 Q54.5801 103.28 52.1264 102.424 L52.1264 97.9101 Q54.0708 99.0444 56.3856 99.6231 Q58.7004 100.202 61.2236 100.202 Q65.6217 100.202 67.9133 98.4657 Q70.2281 96.7296 70.2281 93.4194 Q70.2281 90.3639 68.0754 88.6509 Q65.9457 86.9148 62.1263 86.9148 L58.0986 86.9148 L58.0986 83.0723 L62.3115 83.0723 Q65.7606 83.0723 67.5893 81.7065 Q69.418 80.3176 69.418 77.7251 Q69.418 75.063 67.5198 73.651 Q65.6448 72.2158 62.1263 72.2158 Q60.205 72.2158 58.006 72.6325 Q55.8069 73.0492 53.168 73.9288 L53.168 69.7621 Q55.8301 69.0214 58.1449 68.651 Q60.4828 68.2807 62.543 68.2807 Q67.867 68.2807 70.9689 70.7112 Q74.0707 73.1186 74.0707 77.239 Q74.0707 80.1093 72.4272 82.1 Q70.7837 84.0676 67.7513 84.8315 Z" fill="#000000" fill-rule="evenodd" fill-opacity="1" /><polyline clip-path="url(#clip882)" style="stroke:#009af9; stroke-linecap:butt; stroke-linejoin:round; stroke-width:4; stroke-opacity:1; fill:none" points="
  174.33,1384.24 879.322,951.554 1584.31,518.87 2289.31,86.1857 
  "/>
<path clip-path="url(#clip880)" d="
M1976.5 196.789 L2278.03 196.789 L2278.03 93.1086 L1976.5 93.1086  Z
  " fill="#ffffff" fill-rule="evenodd" fill-opacity="1"/>
<polyline clip-path="url(#clip880)" style="stroke:#000000; stroke-linecap:butt; stroke-linejoin:round; stroke-width:4; stroke-opacity:1; fill:none" points="
  1976.5,196.789 2278.03,196.789 2278.03,93.1086 1976.5,93.1086 1976.5,196.789 
  "/>
<polyline clip-path="url(#clip880)" style="stroke:#009af9; stroke-linecap:butt; stroke-linejoin:round; stroke-width:4; stroke-opacity:1; fill:none" points="
  2001.41,144.949 2150.87,144.949 
  "/>
<path clip-path="url(#clip880)" d="M2189.62 164.636 Q2187.81 169.266 2186.1 170.678 Q2184.39 172.09 2181.52 172.09 L2178.11 172.09 L2178.11 168.525 L2180.61 168.525 Q2182.37 168.525 2183.35 167.692 Q2184.32 166.858 2185.5 163.756 L2186.26 161.812 L2175.78 136.303 L2180.29 136.303 L2188.39 156.581 L2196.49 136.303 L2201.01 136.303 L2189.62 164.636 Z" fill="#000000" fill-rule="evenodd" fill-opacity="1" /><path clip-path="url(#clip880)" d="M2208.3 158.293 L2215.94 158.293 L2215.94 131.928 L2207.63 133.595 L2207.63 129.335 L2215.89 127.669 L2220.57 127.669 L2220.57 158.293 L2228.21 158.293 L2228.21 162.229 L2208.3 162.229 L2208.3 158.293 Z" fill="#000000" fill-rule="evenodd" fill-opacity="1" /></svg>
